<svg width="589" height="150" viewBox="0 0 589 150" fill="none" xmlns="http://www.w3.org/2000/svg">
<path d="M65.8635 5.20541C41.6846 10.3834 23.427 39.7254 23.427 74.985C23.427 77.9952 23.56 80.9604 23.8185 83.8697L0 73.6552C0.664667 36.2842 29.2878 5.6553 65.8635 2V5.20541Z" fill="url(#paint0_linear_2683_2)"/>
<path d="M3.22315 96.5758C11.7401 124.207 36.1835 144.855 65.8635 148.217V144.518C48.7316 140.849 34.5724 125.173 27.7742 103.804L23.0946 104.92L19.2418 103.374L3.22315 96.5758Z" fill="url(#paint1_linear_2683_2)"/>
<path d="M81.6538 5.20541V2C118.659 5.69819 147.03 37.0067 147.036 74.9735L123.589 85.0286C123.92 81.7491 124.09 78.3959 124.09 74.985C124.09 39.7254 105.833 10.3834 81.6538 5.20541Z" fill="url(#paint2_linear_2683_2)"/>
<path d="M126.155 105.395L143.374 98.0875C134.574 124.958 110.79 144.917 81.6538 148.217V144.518C98.1541 140.984 111.897 126.313 118.961 106.144L122.303 106.941L126.155 105.395Z" fill="url(#paint3_linear_2683_2)"/>
<path d="M65.2998 68.6089C61.7513 67.1644 58.4954 64.6843 56.258 60.8115L54.3586 61.9074L61.765 74.7277L63.5496 71.6385C62.8306 71.0042 62.1114 70.4785 61.4176 70.0781L62.5479 68.1215C63.2418 68.5218 64.057 68.8814 64.966 69.1867L65.2998 68.6089Z" fill="url(#paint4_linear_2683_2)"/>
<path d="M61.765 74.7277L54.3586 87.5479L56.258 88.6438C58.4954 84.7711 61.7513 82.2909 65.2998 80.8464L64.966 80.2686C64.057 80.5739 63.2418 80.9334 62.5479 81.3338L61.4176 79.3772C62.1114 78.9768 62.8306 78.4511 63.5496 77.8168L61.765 74.7277Z" fill="url(#paint5_linear_2683_2)"/>
<path d="M63.5496 77.8168C62.8306 78.4511 62.1114 78.9768 61.4176 79.3772L62.5479 81.3338C63.2418 80.9334 64.057 80.5739 64.966 80.2686L63.5496 77.8168Z" fill="url(#paint6_linear_2683_2)"/>
<path d="M64.966 69.1867C64.057 68.8814 63.2418 68.5218 62.5479 68.1215L61.4176 70.0781C62.1114 70.4785 62.8306 71.0042 63.5496 71.6385L64.966 69.1867Z" fill="url(#paint7_linear_2683_2)"/>
<path d="M70.5904 50.7916L68.691 51.8875C69.9906 54.1371 70.7222 56.4422 71.0134 58.7189L73.0918 55.1213L70.5904 50.7916Z" fill="url(#paint8_linear_2683_2)"/>
<path d="M75.1701 58.7189C75.4613 56.4422 76.1929 54.1371 77.4925 51.8875L75.5931 50.7916L73.0918 55.1213L75.1701 58.7189Z" fill="url(#paint9_linear_2683_2)"/>
<path d="M84.4185 74.7276L91.8249 61.9074L89.9255 60.8115C87.6881 64.6843 84.4322 67.1644 80.8837 68.6089L81.2175 69.1867C82.1265 68.8814 82.9417 68.5218 83.6356 68.1215L84.7659 70.0781C84.0721 70.4785 83.3529 71.0042 82.6339 71.6385L84.4185 74.7276Z" fill="url(#paint10_linear_2683_2)"/>
<path d="M82.6339 71.6385C83.3529 71.0042 84.0721 70.4785 84.7659 70.0781L83.6356 68.1215C82.9417 68.5218 82.1265 68.8814 81.2175 69.1867L82.6339 71.6385Z" fill="url(#paint11_linear_2683_2)"/>
<path d="M80.8837 80.8464C84.4322 82.2909 87.6881 84.771 89.9255 88.6438L91.8249 87.5479L84.4185 74.7276L82.6339 77.8168C83.3529 78.4511 84.0721 78.9768 84.7659 79.3772L83.6356 81.3338C82.9417 80.9335 82.1265 80.5739 81.2175 80.2686L80.8837 80.8464Z" fill="url(#paint12_linear_2683_2)"/>
<path d="M81.2175 80.2686C82.1265 80.5739 82.9417 80.9335 83.6356 81.3338L84.7659 79.3772C84.0721 78.9768 83.3529 78.4511 82.6339 77.8168L81.2175 80.2686Z" fill="url(#paint13_linear_2683_2)"/>
<path d="M73.0917 94.334L75.5931 98.6637L77.4925 97.5678C76.1928 95.3182 75.4612 93.0131 75.1701 90.7364L73.0917 94.334Z" fill="url(#paint14_linear_2683_2)"/>
<path d="M71.0134 90.7364C70.7222 93.0131 69.9906 95.3182 68.691 97.5678L70.5904 98.6637L73.0917 94.334L71.0134 90.7364Z" fill="url(#paint15_linear_2683_2)"/>
<path d="M79.8104 74.7277C78.7854 73.3641 77.8402 71.8006 77.0651 70.0964C75.8003 70.2476 74.4625 70.3052 73.0917 70.2494C71.721 70.3052 70.3832 70.2476 69.1184 70.0964C68.3433 71.8006 67.3981 73.3641 66.3731 74.7277C67.3981 76.0912 68.3433 77.6547 69.1184 79.3589C70.3832 79.2077 71.7211 79.1501 73.0918 79.2059C74.4625 79.1501 75.8003 79.2077 77.0651 79.3589C77.8402 77.6547 78.7854 76.0912 79.8104 74.7277Z" fill="url(#paint16_linear_2683_2)"/>
<path d="M194.121 64.0747V63.1032C200.1 63.1032 203.313 56.7508 203.313 53.3878V16.4693C201.295 14.4515 198.829 13.0315 195.765 13.0315H195.242V11.761L211.459 11.761L240.605 48.9785L241.652 50.249V22.2985C241.652 19.0102 238.363 12.6579 232.31 12.6579V11.6863L251.965 11.6863V12.6579C245.986 12.6579 242.698 18.8608 242.698 22.2238V64H241.203L206.004 19.3839C205.481 18.7113 204.957 18.0387 204.434 17.5156V53.4625C204.509 56.8256 207.723 63.1032 213.776 63.1032V64.0747H194.121ZM278.49 20.1312C269.971 20.1312 263.095 29.6972 263.095 41.6546C263.095 53.4625 269.971 63.1779 278.49 63.1779C287.01 63.1779 293.885 53.4625 293.885 41.6546C293.885 29.6972 287.01 20.1312 278.49 20.1312ZM278.49 19.2344C290.896 19.2344 300.91 29.174 300.91 41.6546C300.91 53.9857 290.896 64.0747 278.49 64.0747C266.084 64.0747 256.145 53.9857 256.145 41.6546C256.145 29.174 266.084 19.2344 278.49 19.2344ZM320.919 49.5764C320.919 56.2277 326.375 61.6833 332.951 61.6833C340.499 61.6833 345.955 54.6583 346.03 47.5586V27.6794C345.656 24.7647 342.816 19.9818 338.108 19.9818V19.2344H354.923V20.0565C350.065 20.0565 347.226 24.7647 347.001 27.6794V47.5586C347.001 56.6013 339.528 64.0747 330.485 64.0747C326.898 64.0747 323.61 62.879 320.844 60.9359C316.734 57.9466 313.969 53.0141 313.969 47.5586V26.7825C313.969 22.8217 313.222 19.9818 309.186 19.9818V19.2344L325.702 19.2344V19.9818C321.592 19.9818 320.919 22.8217 320.919 26.7825V49.5764ZM375.317 44.7187C367.993 42.3272 361.939 38.441 361.939 31.1171C361.939 24.9889 366.648 20.9533 372.103 19.7576C374.569 19.1597 375.989 19.2344 378.605 19.2344L394.299 19.2344V31.7897H393.103C393.103 26.0352 388.47 22.2985 384.509 21.028C382.192 20.206 380.623 20.2807 378.306 20.2807C375.84 20.2807 373.747 20.3554 371.804 22.1491C370.011 23.6437 368.964 25.7363 368.964 28.2772C368.964 33.4339 373 35.3769 378.68 37.2453C379.726 37.5442 380.847 37.9179 382.043 38.2916C389.367 40.683 395.42 44.6439 395.42 51.8931C395.42 57.3487 391.683 61.1601 387.05 62.8043C385.107 63.4769 383.089 63.8505 381.071 63.8505H363.135V51.2205H364.256C364.256 57.4234 369.786 61.3096 373.897 62.3559C375.69 62.8043 376.961 62.8043 378.754 62.8043H379.95C381.669 62.8043 383.537 62.4306 384.957 61.459C386.975 59.9644 388.395 57.5729 388.395 54.6583C388.395 49.6511 384.285 47.6333 378.68 45.8397C377.633 45.3913 376.438 45.0923 375.317 44.7187ZM195.167 139.075V138.103C199.876 138.103 200.772 134.815 200.772 130.107V95.5796C200.772 90.9461 199.876 87.6579 195.167 87.6579V86.6863H222.669C237.018 86.6863 248.826 98.4195 248.826 112.843C248.826 127.192 237.018 139.075 222.669 139.075H195.167ZM215.719 87.6579H208.769L208.769 138.103H215.719C229.47 137.954 240.755 126.669 240.755 112.843C240.755 99.0921 229.47 87.8073 215.719 87.6579ZM274.594 107.612L275.565 108.882L277.284 111.274L279.377 114.039L280.796 115.907L288.27 105.594C289.017 104.548 289.466 104.025 289.989 102.679C291.782 98.3448 289.839 95.3554 285.206 94.9818V94.2344H302.021V95.0565C298.284 95.9533 293.875 99.1669 290.288 104.548C289.989 104.996 289.765 105.37 289.391 105.893L281.469 116.879V131.452C281.469 135.413 282.216 138.178 286.327 138.178V139L269.736 139V138.178C273.772 138.178 274.594 135.413 274.594 131.452V116.281L264.131 102.605C262.188 100.138 260.768 98.569 259.722 97.6722C258.152 96.327 256.134 95.1312 254.042 94.9818V94.2344H270.857V94.9818C267.942 95.206 267.344 96.5512 267.868 98.1206C268.241 99.0921 269.213 100.587 270.707 102.605L274.594 107.612ZM324.752 139.075H307.937V138.178C313.018 138.178 315.858 132.797 315.858 129.957V98.2701C314.065 96.6259 311.972 95.3554 309.282 95.3554H308.833V94.2344H322.809L347.77 126.146L348.666 127.192V103.277C348.592 100.363 345.827 94.9818 340.595 94.9818V94.2344H357.485V95.0565C352.328 95.0565 349.563 100.288 349.563 103.202V139.075H348.218L318.026 100.736C317.652 100.213 317.129 99.69 316.68 99.1669V129.957C316.83 132.872 319.52 138.178 324.752 138.178V139.075ZM376.182 138.178V138.925H360.189V138.178C363.477 137.655 367.214 135.338 369.381 130.779C369.755 130.107 370.129 129.359 370.353 128.612L383.805 94.2344H385.299L400.545 130.555C401.591 133.021 402.488 134.665 403.236 135.488C404.357 136.833 406.001 138.103 408.019 138.178V138.925H390.755V138.178C393.744 138.103 395.239 136.683 395.239 135.039C395.239 134.068 394.791 132.573 393.969 130.555L391.278 124.277L390.83 123.082H373.641L371.474 128.687C371.175 129.359 370.951 130.032 370.652 130.63L370.577 130.854C369.082 134.964 371.474 137.879 376.182 138.178ZM374.015 122.035H390.381V121.961L389.26 119.196L382.983 104.174L381.936 101.708L374.015 122.035ZM439.495 123.007L424.324 100.736C423.726 99.9889 423.203 99.1669 422.605 98.4943V129.957C422.605 132.797 425.37 138.178 430.527 138.178V139H413.712V138.178C418.868 138.178 421.708 132.797 421.708 129.957V97.5975C420.288 96.2522 418.719 95.3554 416.776 95.3554H416.327V94.2344H428.434L443.306 116.281L454.367 97.1491C453.62 95.8038 452.424 94.9818 450.257 94.9818V94.2344H466.773V94.9818C462.737 94.9818 461.99 97.8217 461.99 101.783V131.452C461.99 135.413 462.737 138.178 466.773 138.178V139L450.257 139V138.178C454.367 138.178 455.04 135.413 455.04 131.452V101.783C455.04 100.587 455.04 99.4658 454.815 98.4943L440.168 123.978L439.495 123.007ZM480.06 131.452V101.783C480.06 97.8217 479.387 94.9818 475.351 94.9818V94.2344H491.793V94.9818C487.757 94.9818 487.01 97.8217 487.01 101.783V131.452C487.01 135.413 487.757 138.178 491.793 138.178V139H475.351V138.178C479.387 138.178 480.06 135.413 480.06 131.452ZM509.009 107.612C507.066 114.637 507.514 122.783 510.653 128.463C517.603 140.794 533.895 136.683 539.276 127.043L540.248 127.64C538.529 130.555 536.661 132.947 534.493 134.74C527.618 140.27 516.632 140.345 509.607 135.338C507.963 134.217 506.393 132.722 505.048 130.854C501.984 126.893 500.639 122.11 500.639 116.655C500.489 112.694 501.312 109.032 502.881 105.893C506.094 99.4658 512.148 94.907 519.322 94.3839C523.209 94.085 527.319 94.3092 530.682 94.3092H540.248V106.939H539.052C539.052 101.259 534.493 97.5975 530.607 96.1775C521.191 92.8145 511.7 98.1206 509.009 107.612ZM564.399 119.719C557.075 117.327 551.022 113.441 551.022 106.117C551.022 99.9889 555.73 95.9533 561.186 94.7576C563.652 94.1597 565.072 94.2344 567.687 94.2344H583.382V106.79H582.186C582.186 101.035 577.552 97.2985 573.591 96.028C571.275 95.206 569.705 95.2807 567.388 95.2807C564.922 95.2807 562.83 95.3554 560.887 97.1491C559.093 98.6437 558.047 100.736 558.047 103.277C558.047 108.434 562.082 110.377 567.762 112.245C568.808 112.544 569.929 112.918 571.125 113.292C578.449 115.683 584.503 119.644 584.503 126.893C584.503 132.349 580.766 136.16 576.132 137.804C574.189 138.477 572.171 138.851 570.154 138.851H552.217V126.221H553.339C553.339 132.423 558.869 136.31 562.979 137.356C564.773 137.804 566.043 137.804 567.837 137.804H569.033C570.751 137.804 572.62 137.431 574.04 136.459C576.058 134.964 577.478 132.573 577.478 129.658C577.478 124.651 573.367 122.633 567.762 120.84C566.716 120.391 565.52 120.092 564.399 119.719Z" fill="#FBE3D2"/>
<defs>
<linearGradient id="paint0_linear_2683_2" x1="87.3341" y1="-11.0418" x2="35.1929" y2="148.489" gradientUnits="userSpaceOnUse">
<stop stop-color="#FBE3D2"/>
<stop offset="0.5" stop-color="#DFBFA7"/>
<stop offset="1" stop-color="#CDA689"/>
</linearGradient>
<linearGradient id="paint1_linear_2683_2" x1="87.3341" y1="-11.0418" x2="35.1929" y2="148.489" gradientUnits="userSpaceOnUse">
<stop stop-color="#FBE3D2"/>
<stop offset="0.5" stop-color="#DFBFA7"/>
<stop offset="1" stop-color="#CDA689"/>
</linearGradient>
<linearGradient id="paint2_linear_2683_2" x1="87.3341" y1="-11.0418" x2="35.1929" y2="148.489" gradientUnits="userSpaceOnUse">
<stop stop-color="#FBE3D2"/>
<stop offset="0.5" stop-color="#DFBFA7"/>
<stop offset="1" stop-color="#CDA689"/>
</linearGradient>
<linearGradient id="paint3_linear_2683_2" x1="87.3341" y1="-11.0418" x2="35.1929" y2="148.489" gradientUnits="userSpaceOnUse">
<stop stop-color="#FBE3D2"/>
<stop offset="0.5" stop-color="#DFBFA7"/>
<stop offset="1" stop-color="#CDA689"/>
</linearGradient>
<linearGradient id="paint4_linear_2683_2" x1="87.3341" y1="-11.0418" x2="35.1929" y2="148.489" gradientUnits="userSpaceOnUse">
<stop stop-color="#FBE3D2"/>
<stop offset="0.5" stop-color="#DFBFA7"/>
<stop offset="1" stop-color="#CDA689"/>
</linearGradient>
<linearGradient id="paint5_linear_2683_2" x1="87.3341" y1="-11.0418" x2="35.1929" y2="148.489" gradientUnits="userSpaceOnUse">
<stop stop-color="#FBE3D2"/>
<stop offset="0.5" stop-color="#DFBFA7"/>
<stop offset="1" stop-color="#CDA689"/>
</linearGradient>
<linearGradient id="paint6_linear_2683_2" x1="87.3341" y1="-11.0418" x2="35.1929" y2="148.489" gradientUnits="userSpaceOnUse">
<stop stop-color="#FBE3D2"/>
<stop offset="0.5" stop-color="#DFBFA7"/>
<stop offset="1" stop-color="#CDA689"/>
</linearGradient>
<linearGradient id="paint7_linear_2683_2" x1="87.3341" y1="-11.0418" x2="35.1929" y2="148.489" gradientUnits="userSpaceOnUse">
<stop stop-color="#FBE3D2"/>
<stop offset="0.5" stop-color="#DFBFA7"/>
<stop offset="1" stop-color="#CDA689"/>
</linearGradient>
<linearGradient id="paint8_linear_2683_2" x1="87.3341" y1="-11.0418" x2="35.1929" y2="148.489" gradientUnits="userSpaceOnUse">
<stop stop-color="#FBE3D2"/>
<stop offset="0.5" stop-color="#DFBFA7"/>
<stop offset="1" stop-color="#CDA689"/>
</linearGradient>
<linearGradient id="paint9_linear_2683_2" x1="87.3341" y1="-11.0418" x2="35.1929" y2="148.489" gradientUnits="userSpaceOnUse">
<stop stop-color="#FBE3D2"/>
<stop offset="0.5" stop-color="#DFBFA7"/>
<stop offset="1" stop-color="#CDA689"/>
</linearGradient>
<linearGradient id="paint10_linear_2683_2" x1="87.3341" y1="-11.0418" x2="35.1929" y2="148.489" gradientUnits="userSpaceOnUse">
<stop stop-color="#FBE3D2"/>
<stop offset="0.5" stop-color="#DFBFA7"/>
<stop offset="1" stop-color="#CDA689"/>
</linearGradient>
<linearGradient id="paint11_linear_2683_2" x1="87.3341" y1="-11.0418" x2="35.1929" y2="148.489" gradientUnits="userSpaceOnUse">
<stop stop-color="#FBE3D2"/>
<stop offset="0.5" stop-color="#DFBFA7"/>
<stop offset="1" stop-color="#CDA689"/>
</linearGradient>
<linearGradient id="paint12_linear_2683_2" x1="87.3341" y1="-11.0418" x2="35.1929" y2="148.489" gradientUnits="userSpaceOnUse">
<stop stop-color="#FBE3D2"/>
<stop offset="0.5" stop-color="#DFBFA7"/>
<stop offset="1" stop-color="#CDA689"/>
</linearGradient>
<linearGradient id="paint13_linear_2683_2" x1="87.3341" y1="-11.0418" x2="35.1929" y2="148.489" gradientUnits="userSpaceOnUse">
<stop stop-color="#FBE3D2"/>
<stop offset="0.5" stop-color="#DFBFA7"/>
<stop offset="1" stop-color="#CDA689"/>
</linearGradient>
<linearGradient id="paint14_linear_2683_2" x1="87.3341" y1="-11.0418" x2="35.1929" y2="148.489" gradientUnits="userSpaceOnUse">
<stop stop-color="#FBE3D2"/>
<stop offset="0.5" stop-color="#DFBFA7"/>
<stop offset="1" stop-color="#CDA689"/>
</linearGradient>
<linearGradient id="paint15_linear_2683_2" x1="87.3341" y1="-11.0418" x2="35.1929" y2="148.489" gradientUnits="userSpaceOnUse">
<stop stop-color="#FBE3D2"/>
<stop offset="0.5" stop-color="#DFBFA7"/>
<stop offset="1" stop-color="#CDA689"/>
</linearGradient>
<linearGradient id="paint16_linear_2683_2" x1="87.3341" y1="-11.0418" x2="35.1929" y2="148.489" gradientUnits="userSpaceOnUse">
<stop stop-color="#FBE3D2"/>
<stop offset="0.5" stop-color="#DFBFA7"/>
<stop offset="1" stop-color="#CDA689"/>
</linearGradient>
</defs>
</svg>
